<svg xmlns="http://www.w3.org/2000/svg" width="46.012" height="54.755" viewBox="0 0 46.012 54.755"><defs><style>.a{fill:#fff;}</style></defs><path class="a" d="M42.47,60.935c-.024-4.486,2-7.872,6.112-10.366-2.3-3.288-5.77-5.1-10.354-5.452-4.34-.342-9.083,2.53-10.819,2.53-1.834,0-6.039-2.408-9.339-2.408C11.249,45.349,4,50.679,4,61.522a30.468,30.468,0,0,0,1.76,9.926c1.565,4.486,7.212,15.488,13.1,15.3,3.081-.073,5.256-2.188,9.266-2.188,3.887,0,5.9,2.188,9.339,2.188,5.941-.086,11.051-10.085,12.542-14.584-7.97-3.753-7.542-11-7.542-11.234ZM35.551,40.863A11.514,11.514,0,0,0,38.485,32a12.962,12.962,0,0,0-8.3,4.266,11.694,11.694,0,0,0-3.129,8.789C30.246,45.3,33.155,43.662,35.551,40.863Z" transform="translate(-4 -32)"/></svg>