<svg xmlns="http://www.w3.org/2000/svg" width="136.613" height="119.513" viewBox="0 0 136.613 119.513"><defs><style>.a{fill:#fff;opacity:0.5;}</style></defs><path class="a" d="M103.059,0c-2.287,0-28.5,1.19-44.368,10.434C42.824,1.19,16.61,0,14.322,0A14.2,14.2,0,0,0,0,14.04V71.579A14.147,14.147,0,0,0,13.558,85.593c6.746.35,23.625,1.742,34.431,7.1A11.789,11.789,0,0,0,52.82,93.9v.009H64.562V93.9a11.789,11.789,0,0,0,4.831-1.207c10.806-5.354,27.686-6.746,34.431-7.1a14.147,14.147,0,0,0,13.558-14.014V14.04A14.2,14.2,0,0,0,103.059,0ZM54.289,80.361A2.9,2.9,0,0,1,50.377,83.1C38.542,78.6,22.139,77.222,14.005,76.8a5.347,5.347,0,0,1-5.2-5.22V14.04A5.388,5.388,0,0,1,14.317,8.8c3.655.018,23.21,1.432,36.412,7.426a5.95,5.95,0,0,1,3.536,5.4l.024,19.454Zm54.289-8.782a5.349,5.349,0,0,1-5.2,5.222C95.242,77.222,78.84,78.6,67,83.106a2.9,2.9,0,0,1-3.912-2.744V41.084l.026-19.456a5.955,5.955,0,0,1,3.536-5.4c13.2-5.992,32.757-7.406,36.41-7.424a5.388,5.388,0,0,1,5.513,5.236V71.579Z" transform="translate(22.718) rotate(14)"/></svg>