<svg xmlns="http://www.w3.org/2000/svg" xmlns:xlink="http://www.w3.org/1999/xlink" width="56" height="56" viewBox="0 0 56 56"><defs><style>.a{clip-path:url(#a);}.b{fill:#fff;}</style><clipPath id="a"><rect width="56" height="56"/></clipPath></defs><g class="a"><path class="b" d="M2833.5,81a24.422,24.422,0,1,1,9.537-1.925A24.422,24.422,0,0,1,2833.5,81Zm0-39c-2.582,0-4.874.039-5.981.1a8.021,8.021,0,0,0-8.417,8.41c-.136,2.4-.136,9.559,0,11.962a8.032,8.032,0,0,0,8.417,8.418c1.113.063,3.4.1,5.981.1s4.869-.039,5.981-.1a8.03,8.03,0,0,0,8.417-8.418c.136-2.4.136-9.553,0-11.956a8.029,8.029,0,0,0-8.417-8.417C2838.374,42.039,2836.082,42,2833.5,42Zm2.566,26.4h0c-.544,0-1.068,0-1.53-.01-.377,0-.733-.007-1.032-.007s-.643,0-1.012.007c-.451,0-.963.009-1.5.009-1.942,0-4.681-.062-6.04-.6a4.9,4.9,0,0,1-2.757-2.756c-.648-1.637-.613-5.174-.59-7.515v-.071c0-.35.007-.68.007-.961,0-.3,0-.646-.007-1.008-.022-2.352-.056-5.9.589-7.539a4.9,4.9,0,0,1,2.757-2.756,20.426,20.426,0,0,1,5.984-.6c.544,0,1.068.005,1.53.01.376,0,.732.007,1.033.007s.643,0,1.011-.007c.451,0,.963-.009,1.5-.009,1.942,0,4.681.062,6.04.6a4.9,4.9,0,0,1,2.756,2.756c.649,1.637.613,5.173.59,7.513v.07c0,.351-.007.682-.007.963s0,.613.007.964v.069c.024,2.343.06,5.883-.59,7.514a4.9,4.9,0,0,1-2.756,2.756,20.424,20.424,0,0,1-5.983.6ZM2833.5,49.063a7.421,7.421,0,1,0,5.26,2.174,7.421,7.421,0,0,0-5.26-2.174Zm7.737-2.039a1.734,1.734,0,1,0,1.734,1.734,1.734,1.734,0,0,0-1.734-1.734Zm-7.737,14.3a6.2,6.2,0,1,1,0,.006Z" transform="translate(-2805 -28)"/></g></svg>