<svg xmlns="http://www.w3.org/2000/svg" width="29" height="28.994" viewBox="0 0 29 28.994"><defs><style>.a{fill:#f339a1;}</style></defs><path class="a" d="M14.428,38.888a7.434,7.434,0,1,0,7.434,7.434A7.422,7.422,0,0,0,14.428,38.888Zm0,12.266a4.833,4.833,0,1,1,4.833-4.833,4.842,4.842,0,0,1-4.833,4.833ZM23.9,38.584a1.734,1.734,0,1,1-1.734-1.734A1.73,1.73,0,0,1,23.9,38.584Zm4.923,1.76a8.58,8.58,0,0,0-2.342-6.075,8.637,8.637,0,0,0-6.075-2.342c-2.394-.136-9.569-.136-11.962,0a8.624,8.624,0,0,0-6.075,2.336A8.609,8.609,0,0,0,.027,40.337c-.136,2.394-.136,9.569,0,11.962a8.58,8.58,0,0,0,2.342,6.075,8.648,8.648,0,0,0,6.075,2.342c2.394.136,9.569.136,11.962,0a8.58,8.58,0,0,0,6.075-2.342A8.637,8.637,0,0,0,28.823,52.3C28.959,49.906,28.959,42.738,28.823,40.344ZM25.731,54.868a4.893,4.893,0,0,1-2.756,2.756c-1.909.757-6.437.582-8.546.582s-6.644.168-8.546-.582a4.893,4.893,0,0,1-2.756-2.756c-.757-1.909-.582-6.437-.582-8.546s-.168-6.644.582-8.546a4.893,4.893,0,0,1,2.756-2.756c1.909-.757,6.437-.582,8.546-.582s6.644-.168,8.546.582a4.893,4.893,0,0,1,2.756,2.756c.757,1.909.582,6.437.582,8.546S26.488,52.966,25.731,54.868Z" transform="translate(0.075 -31.825)"/></svg>