<svg xmlns="http://www.w3.org/2000/svg" xmlns:xlink="http://www.w3.org/1999/xlink" width="56" height="56" viewBox="0 0 56 56">
  <defs>
    <style>
      .cls-1 {
        clip-path: url(#clip-InstagramBranco);
      }

      .cls-2 {
        fill: #fff;
      }
    </style>
    <clipPath id="clip-InstagramBranco">
      <rect width="56" height="56"/>
    </clipPath>
  </defs>
  <g id="InstagramBranco" class="cls-1">
    <path id="Subtraction_113" data-name="Subtraction 113" class="cls-2" d="M2833.5,81a24.422,24.422,0,1,1,9.537-1.925A24.346,24.346,0,0,1,2833.5,81Zm0-39c-2.582,0-4.874.039-5.981.1a8.021,8.021,0,0,0-8.417,8.41c-.136,2.4-.136,9.559,0,11.962a8.032,8.032,0,0,0,8.417,8.418c1.113.063,3.4.1,5.981.1s4.869-.039,5.981-.1a8.03,8.03,0,0,0,8.417-8.418c.136-2.4.136-9.553,0-11.956a8.029,8.029,0,0,0-8.417-8.417C2838.374,42.039,2836.082,42,2833.5,42Zm2.566,26.4h0c-.544,0-1.068-.005-1.53-.01-.377,0-.733-.007-1.032-.007s-.643,0-1.012.007c-.451,0-.963.009-1.495.009-1.942,0-4.681-.062-6.04-.6a4.9,4.9,0,0,1-2.757-2.756c-.648-1.637-.613-5.174-.59-7.515v-.071c0-.35.007-.68.007-.961,0-.3,0-.646-.007-1.008-.022-2.352-.056-5.9.589-7.539a4.9,4.9,0,0,1,2.757-2.756,20.426,20.426,0,0,1,5.984-.6c.544,0,1.068.005,1.53.01.376,0,.732.007,1.033.007s.643,0,1.011-.007c.451,0,.963-.009,1.495-.009,1.942,0,4.681.062,6.04.6a4.9,4.9,0,0,1,2.756,2.756c.649,1.637.613,5.173.59,7.513v.07c0,.351-.007.682-.007.963s0,.613.007.964v.069c.024,2.343.06,5.883-.59,7.514a4.895,4.895,0,0,1-2.756,2.756A20.425,20.425,0,0,1,2836.066,68.4ZM2833.5,49.063a7.421,7.421,0,1,0,5.26,2.174A7.389,7.389,0,0,0,2833.5,49.063Zm7.737-2.039a1.734,1.734,0,1,0,1.734,1.734A1.736,1.736,0,0,0,2841.241,47.025Zm-7.737,14.3a4.833,4.833,0,1,1,4.833-4.833A4.838,4.838,0,0,1,2833.5,61.33Z" transform="translate(-2805 -28)"/>
  </g>
</svg>
